<?xml version="1.0" encoding="utf-8"?>
<!-- Generated by IcoMoon.io -->
<!DOCTYPE svg PUBLIC "-//W3C//DTD SVG 1.1//EN" "http://www.w3.org/Graphics/SVG/1.1/DTD/svg11.dtd">
<svg version="1.1" xmlns="http://www.w3.org/2000/svg" xmlns:xlink="http://www.w3.org/1999/xlink" width="64" height="64" viewBox="0 0 64 64">
	<path d="M25.827 29.766c0 0 6.058-0.47 6.058-7.872s-4.957-11.014-11.232-11.014h-20.653v41.363h20.653c0 0 12.605 0.413 12.605-12.205 0.003 0 0.55-10.272-7.43-10.272zM9.101 18.23h11.552c0 0 2.806 0 2.806 4.304 0 4.304-1.651 4.928-3.526 4.928h-10.832v-9.232zM20.067 44.893h-10.966v-11.056h11.552c0 0 4.186-0.058 4.186 5.68 0 4.838-3.126 5.341-4.771 5.376zM50.074 21.405c-15.264 0-15.251 15.888-15.251 15.888s-1.046 15.811 15.251 15.811c0 0 13.581 0.813 13.581-11.002h-6.982c0 0 0.23 4.451-6.365 4.451 0 0-6.986 0.486-6.986-7.194h20.566c0.003 0.003 2.253-17.955-13.814-17.955zM56.285 33.84h-13.037c0 0 0.854-6.378 6.986-6.378 6.125 0 6.051 6.378 6.051 6.378zM57.914 13.315h-16.378v5.094h16.374v-5.094z" fill="#f4f3ef" />
</svg>
