<?xml version="1.0" encoding="utf-8"?>
<!-- Generated by IcoMoon.io -->
<!DOCTYPE svg PUBLIC "-//W3C//DTD SVG 1.1//EN" "http://www.w3.org/Graphics/SVG/1.1/DTD/svg11.dtd">
<svg version="1.1" xmlns="http://www.w3.org/2000/svg" xmlns:xlink="http://www.w3.org/1999/xlink" width="64" height="64" viewBox="0 0 64 64">
	<path d="M0 34.776c0 2.9 0.271 5.524 0.814 7.871 0.542 2.347 1.294 4.386 2.253 6.118 0.96 1.732 2.18 3.255 3.662 4.569 1.481 1.315 3.088 2.389 4.819 3.224 1.732 0.834 3.709 1.512 5.93 2.034 2.222 0.522 4.491 0.887 6.807 1.096 2.316 0.209 4.861 0.313 7.636 0.313 2.796 0 5.352-0.104 7.667-0.313 2.316-0.209 4.59-0.574 6.822-1.096 2.232-0.522 4.22-1.2 5.962-2.034 1.742-0.835 3.359-1.909 4.851-3.224 1.492-1.314 2.723-2.838 3.693-4.569 0.97-1.731 1.726-3.771 2.269-6.118 0.542-2.347 0.814-4.971 0.814-7.871 0-5.174-1.732-9.65-5.195-13.426 0.188-0.501 0.36-1.069 0.516-1.706 0.157-0.636 0.303-1.544 0.438-2.723 0.136-1.179 0.084-2.54-0.157-4.084-0.24-1.544-0.683-3.119-1.33-4.726l-0.469-0.094c-0.334-0.063-0.882-0.047-1.643 0.047s-1.648 0.282-2.66 0.563c-1.012 0.282-2.316 0.824-3.912 1.627-1.596 0.803-3.281 1.81-5.054 3.020-3.046-0.835-7.229-1.252-12.55-1.252-5.3 0-9.472 0.417-12.518 1.252-1.773-1.21-3.469-2.217-5.086-3.020-1.617-0.803-2.905-1.346-3.865-1.627-0.96-0.282-1.857-0.464-2.691-0.548-0.835-0.083-1.362-0.109-1.58-0.078-0.219 0.031-0.391 0.068-0.516 0.11-0.647 1.607-1.090 3.182-1.33 4.726-0.24 1.544-0.292 2.905-0.157 4.084 0.136 1.179 0.282 2.086 0.438 2.723 0.157 0.636 0.329 1.205 0.516 1.706-3.463 3.776-5.195 8.252-5.195 13.426zM7.855 42.631c0-3.004 1.367-5.758 4.1-8.262 0.814-0.751 1.763-1.32 2.848-1.706 1.085-0.386 2.311-0.605 3.677-0.657 1.367-0.052 2.676-0.042 3.928 0.031 1.252 0.073 2.796 0.172 4.632 0.297 1.836 0.125 3.422 0.188 4.757 0.188 1.335 0 2.921-0.063 4.757-0.188 1.836-0.125 3.38-0.224 4.632-0.297 1.252-0.073 2.561-0.084 3.928-0.031 1.367 0.052 2.592 0.271 3.677 0.657 1.085 0.386 2.034 0.954 2.848 1.706 2.733 2.462 4.1 5.216 4.1 8.262 0 1.794-0.224 3.385-0.673 4.773-0.449 1.388-1.022 2.551-1.721 3.489-0.699 0.939-1.669 1.737-2.91 2.394-1.241 0.657-2.451 1.163-3.63 1.518-1.179 0.355-2.692 0.631-4.538 0.829-1.847 0.198-3.495 0.318-4.945 0.36-1.45 0.042-3.291 0.063-5.524 0.063-2.232 0-4.074-0.021-5.524-0.063-1.45-0.042-3.098-0.162-4.945-0.36-1.846-0.198-3.359-0.475-4.538-0.829-1.179-0.355-2.389-0.861-3.63-1.518-1.241-0.657-2.212-1.455-2.91-2.394-0.699-0.939-1.273-2.102-1.721-3.489-0.449-1.388-0.673-2.978-0.673-4.773zM40 42c0-3.314 1.791-6 4-6s4 2.686 4 6c0 3.314-1.791 6-4 6-2.209 0-4-2.686-4-6zM16 42c0-3.314 1.791-6 4-6s4 2.686 4 6c0 3.314-1.791 6-4 6-2.209 0-4-2.686-4-6z" fill="#f4f3ef" />
</svg>
