<?xml version="1.0" encoding="utf-8"?>
<!-- Generator: Adobe Illustrator 15.1.0, SVG Export Plug-In . SVG Version: 6.00 Build 0)  -->
<!DOCTYPE svg PUBLIC "-//W3C//DTD SVG 1.1//EN" "http://www.w3.org/Graphics/SVG/1.1/DTD/svg11.dtd">
<svg version="1.1" id="Layer_1" xmlns="http://www.w3.org/2000/svg" xmlns:xlink="http://www.w3.org/1999/xlink" x="0px" y="0px"
	 width="113.39px" height="96.38px" viewBox="0 0 113.39 96.38" enable-background="new 0 0 113.39 96.38" xml:space="preserve">
<g>
	<path fill="#2E2C2C" d="M54.482,53.496c-1.594,1.688-3.383,3.883-5.367,6.586c-1.984,2.703-3.46,5.105-4.43,7.207
		c-0.969,2.102-1.613,4.27-1.934,6.504c-0.32,2.234-0.167,4.418,0.457,6.551c0.625,2.133,1.731,3.926,3.316,5.379
		s3.512,2.5,5.777,3.141c2.265,0.641,4.547,0.816,6.844,0.527c2.297-0.289,4.313-1.07,6.047-2.344s3.07-2.641,4.008-4.102
		s1.535-2.832,1.793-4.113s0.301-2.336,0.129-3.164l0.914-0.164c0.296,0.438,0.413,1.262,0.352,2.473
		c-0.063,1.211-0.258,2.348-0.586,3.41s-1.005,2.332-2.027,3.809c-1.023,1.477-2.402,2.793-4.137,3.949s-3.566,1.891-5.496,2.203
		c-1.931,0.313-3.458,0.469-4.583,0.469c-1.031,0-2.414-0.152-4.148-0.457s-3.527-0.984-5.379-2.039s-3.296-2.621-4.336-4.699
		c-1.039-2.078-1.559-4.508-1.559-7.289c0-2.203,0.227-4.152,0.68-5.848c0.454-1.695,1.188-3.512,2.203-5.449
		c1.016-1.938,2.2-3.867,3.551-5.789s2.652-3.676,3.902-5.262c1.25-1.586,2.531-3.035,3.844-4.348s2.492-2.391,3.539-3.234
		c1.046-0.844,1.911-1.386,2.59-1.629c0.68-0.242,1.426-0.363,2.238-0.363c0.563,0,1.046,0.082,1.453,0.246
		c0.406,0.164,0.765,0.395,1.078,0.691c0.313,0.297,0.563,0.641,0.75,1.031c0.188,0.391,0.266,0.777,0.234,1.16
		c-0.032,0.383,0.137,0.301,0.504-0.246c0.366-0.547,0.863-1.058,1.488-1.535c0.624-0.477,1.187-0.809,1.688-0.996
		c0.5-0.188,1.086-0.32,1.758-0.398c0.422,0.109,0.77,0.246,1.043,0.41c0.272,0.164,0.519,0.418,0.737,0.762
		c0.219,0.344,0.352,1.219,0.398,2.625c0.828-1.125,1.566-1.93,2.215-2.414c0.648-0.484,1.242-0.809,1.781-0.973
		s0.98-0.261,1.324-0.293c0.531,0.047,0.965,0.161,1.301,0.34c0.336,0.18,0.598,0.457,0.785,0.832s0.301,0.899,0.34,1.57
		c0.039,0.672-0.063,1.359-0.305,2.063s-1.082,2.742-2.52,6.117s-2.199,5.293-2.285,5.754s-0.043,0.871,0.129,1.23
		s0.484,0.598,0.938,0.715s0.961,0.031,1.523-0.258s1-0.59,1.313-0.902s0.617-0.574,0.914-0.785s0.625-0.277,0.984-0.199
		c-0.031,0.469-0.133,0.859-0.305,1.172s-0.535,0.75-1.09,1.313s-1.238,0.992-2.051,1.289s-1.641,0.461-2.484,0.492
		c-0.469-0.031-0.961-0.145-1.477-0.34S73.95,65.34,73.7,64.84s-0.414-1.051-0.492-1.652s0.016-1.285,0.281-2.051
		s0.879-2.148,1.84-4.148s1.688-3.617,2.18-4.852s0.66-2.102,0.504-2.602s-0.527-0.742-1.113-0.727
		c-0.586,0.016-1.195,0.297-1.828,0.844s-1.145,1.145-1.535,1.793s-1.03,2.168-1.921,4.559s-1.629,4.262-2.215,5.613
		s-1.102,2.355-1.547,3.012s-0.926,1.059-1.441,1.207s-1.023,0.223-1.523,0.223c-0.375-0.172-0.555-0.457-0.539-0.855
		c0.015-0.398,0.413-1.41,1.195-3.035c0.781-1.625,1.625-3.461,2.531-5.508c0.905-2.047,1.531-3.691,1.875-4.934
		c0.343-1.242,0.472-2.051,0.387-2.426c-0.086-0.375-0.337-0.594-0.75-0.656c-0.414-0.062-0.918,0.051-1.512,0.34
		c-0.595,0.289-1.169,0.836-1.723,1.641c-0.555,0.805-1.102,1.973-1.641,3.504s-1.228,3.148-2.063,4.852
		c-0.836,1.703-1.617,3.199-2.344,4.488s-1.356,2.043-1.887,2.262c-0.532,0.219-0.977,0.328-1.336,0.328
		c-0.484-0.047-0.758-0.266-0.82-0.656c0.109-0.797,0.742-2.246,1.899-4.348c1.156-2.102,2.136-4.027,2.941-5.777
		c0.805-1.75,1.285-3.039,1.441-3.867c0.155-0.828,0.155-1.484,0-1.969c-0.156-0.484-0.578-0.816-1.266-0.996
		c-0.688-0.179-1.594,0.196-2.719,1.125C57.435,50.5,56.076,51.809,54.482,53.496z"/>
	<path fill="#2E2C2C" d="M88.185,66.129c-1.672,0-2.887-0.539-3.645-1.617s-1.137-2.578-1.137-4.5s0.645-4.113,1.934-6.574
		s2.945-4.414,4.969-5.859c2.023-1.445,4.184-2.246,6.48-2.402c-0.453-4.046-1.461-7.714-3.023-11.004
		c-1.563-3.289-3.594-6.191-6.094-8.707c-2.5-2.516-5.578-4.96-9.234-7.336c-3.656-2.375-7.316-4.344-10.98-5.906
		c-3.664-1.562-7.172-2.738-10.523-3.527c-3.352-0.789-7.008-1.309-10.969-1.559c-3.961-0.25-8.375-0.097-13.242,0.457
		c-4.867,0.555-8.434,1.574-10.699,3.059c-2.266,1.485-4,3.125-5.203,4.922c-1.203,1.797-1.883,3.875-2.039,6.234
		c-0.156,2.359,0.379,4.512,1.605,6.457s2.996,3.5,5.309,4.664c2.313,1.164,4.762,1.984,7.348,2.461
		c2.586,0.477,5.277,0.727,8.074,0.75s5.25-0.152,7.359-0.527s4.16-1,6.152-1.875c1.992-0.875,3.543-1.949,4.652-3.223
		c1.109-1.273,1.805-2.379,2.086-3.316s0.688-1.391,1.219-1.359c0.531,0.032,0.797,0.473,0.797,1.324
		c0,0.852-0.617,2.145-1.852,3.879s-3.273,3.243-6.117,4.523c-2.844,1.281-5.582,2.086-8.215,2.414s-5.465,0.414-8.496,0.258
		c-3.031-0.156-5.992-0.613-8.883-1.371c-2.891-0.758-5.352-1.805-7.383-3.141s-3.531-2.926-4.5-4.77
		c-0.969-1.843-1.492-3.906-1.57-6.188c0-2.422,0.535-4.723,1.605-6.902s2.781-4.187,5.133-6.023
		c2.352-1.836,5.133-3.258,8.344-4.266s7.621-1.566,13.23-1.676c6.25,0.109,11.371,0.625,15.363,1.547
		c3.992,0.922,7.82,2.113,11.484,3.574c3.664,1.461,7.43,3.398,11.297,5.813s7.063,4.895,9.586,7.441
		c2.523,2.547,4.516,5.024,5.977,7.43c1.461,2.406,2.637,5.012,3.527,7.816c0.891,2.805,1.336,6.027,1.336,9.668
		c0,2.078-0.191,4.121-0.574,6.129s-1.004,3.969-1.863,5.883s-2.117,3.547-3.773,4.898S89.763,66.129,88.185,66.129z M88.782,53.098
		c-1.008,1.641-1.629,3.27-1.863,4.887s0.113,2.793,1.043,3.527s2.125,0.535,3.586-0.598s2.652-2.891,3.574-5.273
		s1.422-5.012,1.5-7.887c-1.422-0.266-2.832,0.149-4.23,1.242C90.993,50.09,89.79,51.457,88.782,53.098z"/>
</g>
</svg>
