<?xml version="1.0" encoding="utf-8"?>
<!-- Generator: Adobe Illustrator 15.1.0, SVG Export Plug-In . SVG Version: 6.00 Build 0)  -->
<!DOCTYPE svg PUBLIC "-//W3C//DTD SVG 1.1//EN" "http://www.w3.org/Graphics/SVG/1.1/DTD/svg11.dtd">
<svg version="1.1" id="Layer_1" xmlns="http://www.w3.org/2000/svg" xmlns:xlink="http://www.w3.org/1999/xlink" x="0px" y="0px"
	 width="113.391px" height="96.379px" viewBox="0 0 113.391 96.379" enable-background="new 0 0 113.391 96.379"
	 xml:space="preserve">
<g id="Layer_1_1_">
	<g>
		<path fill="none" stroke="#2E2C2C" stroke-width="4" stroke-linecap="round" stroke-linejoin="bevel" stroke-miterlimit="10" d="
			M33.626,91.801c-1.169,0-2.604-0.827-3.188-1.842L7.563,50.34c-0.584-1.012-0.584-2.669,0-3.682L30.437,7.039
			c0.584-1.013,2.021-1.841,3.188-1.841h45.749c1.169,0,2.604,0.829,3.188,1.841l22.873,39.619c0.585,1.013,0.585,2.67,0,3.682
			L82.563,89.959c-0.585,1.015-2.021,1.842-3.188,1.842H33.626z"/>
	</g>
</g>
<g id="Layer_2_copy">
	<path fill="#2E2C2C" d="M86.084,53.377l-12.711-12.71c-1.082-1.083-2.512-1.604-3.93-1.574c-1.419-0.03-2.848,0.491-3.93,1.574
		L56.5,49.68l-9.014-9.013c-1.083-1.083-2.511-1.604-3.93-1.574c-1.418-0.03-2.848,0.491-3.93,1.574l-12.71,12.71
		c-2.105,2.104-2.105,5.521,0,7.627c2.105,2.104,5.521,2.104,7.627,0l9.015-9.014l9.015,9.014c1.081,1.082,2.51,1.604,3.929,1.572
		c1.418,0.031,2.848-0.49,3.931-1.572l9.014-9.014l9.014,9.014c2.105,2.104,5.521,2.104,7.627,0
		C88.191,58.897,88.191,55.482,86.084,53.377z"/>
	<path fill="#DC6859" d="M86.084,48.704L73.373,35.992c-1.082-1.083-2.512-1.604-3.93-1.574c-1.419-0.03-2.848,0.491-3.93,1.574
		L56.5,45.006l-9.015-9.014c-1.083-1.083-2.511-1.604-3.93-1.574c-1.418-0.03-2.848,0.491-3.93,1.574l-12.71,12.711
		c-2.105,2.105-2.105,5.521,0,7.625c2.105,2.106,5.521,2.106,7.627,0l9.015-9.014l9.014,9.014c1.083,1.084,2.512,1.604,3.93,1.573
		c1.419,0.031,2.848-0.489,3.931-1.573l9.014-9.014l9.015,9.014c2.104,2.106,5.521,2.106,7.626,0
		C88.191,54.225,88.191,50.81,86.084,48.704z"/>
</g>
</svg>
