<?xml version="1.0" encoding="utf-8"?>
<!-- Generator: Adobe Illustrator 15.1.0, SVG Export Plug-In . SVG Version: 6.00 Build 0)  -->
<!DOCTYPE svg PUBLIC "-//W3C//DTD SVG 1.1//EN" "http://www.w3.org/Graphics/SVG/1.1/DTD/svg11.dtd">
<svg version="1.1" id="Layer_1" xmlns="http://www.w3.org/2000/svg" xmlns:xlink="http://www.w3.org/1999/xlink" x="0px" y="0px"
	 width="226.771px" height="192.753px" viewBox="0 0 226.771 192.753" enable-background="new 0 0 226.771 192.753"
	 xml:space="preserve">
<g>
	<path fill="#2E2C2C" d="M111.564,104.132c-2.193,2.322-4.656,5.343-7.385,9.063c-2.73,3.72-4.762,7.024-6.095,9.917
		c-1.333,2.892-2.22,5.875-2.661,8.949c-0.44,3.074-0.23,6.079,0.629,9.014c0.86,2.935,2.382,5.401,4.563,7.401
		s4.832,3.44,7.949,4.321c3.117,0.882,6.256,1.123,9.418,0.726c3.16-0.397,5.934-1.473,8.32-3.225
		c2.387-1.753,4.225-3.634,5.515-5.644c1.29-2.011,2.112-3.897,2.467-5.66c0.354-1.763,0.414-3.214,0.177-4.354l1.258-0.226
		c0.407,0.602,0.568,1.736,0.484,3.402c-0.086,1.666-0.355,3.229-0.807,4.692c-0.451,1.462-1.382,3.209-2.79,5.24
		c-1.408,2.032-3.306,3.843-5.692,5.434c-2.387,1.591-4.907,2.602-7.563,3.032c-2.657,0.43-4.758,0.645-6.306,0.645
		c-1.419,0-3.322-0.209-5.708-0.629c-2.387-0.419-4.854-1.354-7.401-2.806s-4.536-3.606-5.966-6.466
		c-1.43-2.859-2.145-6.203-2.145-10.029c0-3.032,0.312-5.714,0.935-8.047c0.624-2.333,1.634-4.832,3.031-7.498
		c1.398-2.666,3.027-5.321,4.886-7.966s3.649-5.058,5.37-7.24c1.72-2.182,3.483-4.176,5.289-5.981
		c1.806-1.807,3.429-3.29,4.869-4.45c1.44-1.161,2.629-1.908,3.565-2.242c0.935-0.333,1.961-0.5,3.08-0.5
		c0.774,0,1.439,0.113,2,0.339c0.559,0.226,1.052,0.543,1.483,0.951c0.43,0.409,0.774,0.882,1.032,1.419
		c0.258,0.538,0.366,1.07,0.323,1.596c-0.044,0.527,0.188,0.415,0.693-0.338c0.504-0.753,1.188-1.457,2.048-2.113
		c0.859-0.656,1.633-1.113,2.322-1.371c0.688-0.258,1.494-0.44,2.418-0.548c0.581,0.15,1.059,0.338,1.435,0.564
		c0.375,0.226,0.714,0.576,1.015,1.048c0.301,0.473,0.483,1.677,0.548,3.611c1.139-1.547,2.155-2.655,3.047-3.321
		c0.892-0.666,1.709-1.112,2.451-1.338c0.742-0.226,1.349-0.359,1.822-0.403c0.731,0.064,1.328,0.221,1.79,0.467
		c0.462,0.247,0.823,0.629,1.081,1.145s0.414,1.237,0.467,2.161c0.054,0.924-0.086,1.87-0.419,2.837
		c-0.333,0.968-1.489,3.773-3.467,8.417s-3.026,7.283-3.145,7.917c-0.118,0.635-0.059,1.199,0.177,1.693
		c0.237,0.494,0.667,0.822,1.29,0.984c0.624,0.161,1.322,0.043,2.096-0.355c0.774-0.397,1.376-0.812,1.806-1.241
		s0.849-0.79,1.258-1.081c0.408-0.29,0.86-0.381,1.354-0.273c-0.043,0.645-0.183,1.183-0.419,1.612
		c-0.236,0.43-0.736,1.031-1.5,1.806s-1.704,1.365-2.822,1.773c-1.118,0.409-2.257,0.635-3.418,0.678
		c-0.645-0.043-1.322-0.199-2.032-0.468s-1.236-0.747-1.581-1.435c-0.344-0.688-0.57-1.446-0.677-2.273
		c-0.107-0.828,0.022-1.769,0.387-2.822s1.209-2.956,2.532-5.708s2.322-4.978,2.999-6.676s0.908-2.893,0.693-3.58
		s-0.726-1.02-1.532-0.999s-1.645,0.408-2.516,1.16c-0.871,0.753-1.575,1.575-2.112,2.468c-0.537,0.892-1.417,2.983-2.643,6.272
		s-2.241,5.864-3.048,7.724c-0.806,1.859-1.516,3.241-2.128,4.144c-0.613,0.903-1.274,1.457-1.984,1.661
		c-0.709,0.205-1.408,0.307-2.096,0.307c-0.516-0.236-0.764-0.629-0.742-1.177c0.02-0.549,0.569-1.94,1.645-4.177
		c1.075-2.236,2.236-4.762,3.483-7.579c1.246-2.816,2.107-5.079,2.58-6.788c0.471-1.709,0.649-2.822,0.532-3.338
		c-0.118-0.516-0.463-0.817-1.032-0.902c-0.57-0.085-1.263,0.069-2.08,0.467c-0.818,0.397-1.608,1.15-2.371,2.257
		c-0.763,1.107-1.516,2.715-2.257,4.822c-0.742,2.106-1.689,4.332-2.838,6.676c-1.15,2.343-2.226,4.402-3.225,6.176
		s-1.866,2.811-2.596,3.111c-0.731,0.302-1.344,0.452-1.839,0.452c-0.667-0.064-1.043-0.365-1.128-0.903
		c0.149-1.097,1.021-3.091,2.612-5.982c1.591-2.891,2.939-5.541,4.048-7.949c1.107-2.408,1.768-4.182,1.983-5.321
		c0.213-1.139,0.213-2.043,0-2.709c-0.215-0.665-0.796-1.123-1.742-1.37c-0.947-0.247-2.193,0.269-3.741,1.547
		C115.628,100.01,113.757,101.81,111.564,104.132z"/>
	<path fill="#2E2C2C" d="M157.939,121.515c-2.301,0-3.972-0.742-5.015-2.226c-1.042-1.482-1.564-3.547-1.564-6.191
		s0.887-5.66,2.661-9.047c1.774-3.386,4.053-6.073,6.837-8.061c2.785-1.988,5.757-3.091,8.917-3.306
		c-0.624-5.568-2.01-10.615-4.161-15.141c-2.15-4.526-4.945-8.519-8.385-11.981c-3.439-3.461-7.675-6.826-12.706-10.094
		c-5.031-3.268-10.067-5.977-15.109-8.127c-5.042-2.149-9.869-3.768-14.48-4.854c-4.612-1.085-9.642-1.801-15.093-2.145
		C94.391,40,88.317,40.209,81.62,40.971c-6.697,0.764-11.604,2.167-14.722,4.209c-3.118,2.043-5.504,4.301-7.16,6.772
		c-1.656,2.472-2.591,5.333-2.806,8.579c-0.215,3.246,0.521,6.208,2.209,8.884s4.123,4.817,7.305,6.418
		c3.182,1.602,6.552,2.73,10.11,3.386c3.558,0.656,7.261,1,11.11,1.032c3.849,0.033,7.224-0.209,10.126-0.725
		c2.903-0.516,5.725-1.375,8.466-2.581c2.741-1.204,4.875-2.681,6.401-4.434c1.526-1.752,2.483-3.273,2.87-4.563
		c0.387-1.29,0.946-1.914,1.677-1.871s1.097,0.65,1.097,1.822c0,1.173-0.85,2.951-2.548,5.337c-1.699,2.387-4.504,4.462-8.417,6.224
		c-3.913,1.763-7.681,2.871-11.304,3.322c-3.623,0.452-7.519,0.57-11.69,0.355c-4.171-0.214-8.245-0.843-12.223-1.887
		c-3.978-1.042-7.363-2.483-10.159-4.322c-2.795-1.838-4.859-4.026-6.192-6.563c-1.333-2.536-2.053-5.374-2.161-8.514
		c0-3.333,0.736-6.499,2.209-9.498c1.472-2.999,3.827-5.761,7.062-8.288c3.236-2.526,7.063-4.483,11.481-5.87
		c4.418-1.387,10.487-2.155,18.205-2.306c8.6,0.15,15.646,0.86,21.14,2.128c5.493,1.27,10.761,2.908,15.802,4.918
		c5.042,2.011,10.223,4.676,15.544,7.998s9.718,6.735,13.19,10.24c3.473,3.504,6.213,6.913,8.224,10.223s3.628,6.896,4.854,10.755
		c1.225,3.859,1.838,8.294,1.838,13.303c0,2.859-0.264,5.67-0.79,8.433c-0.527,2.763-1.381,5.461-2.564,8.094
		c-1.183,2.634-2.913,4.881-5.192,6.741C162.336,120.585,160.11,121.515,157.939,121.515z M158.761,103.584
		c-1.387,2.258-2.241,4.498-2.564,6.725c-0.322,2.225,0.156,3.843,1.435,4.853c1.279,1.011,2.924,0.736,4.935-0.822
		c2.01-1.559,3.649-3.978,4.918-7.256c1.269-3.279,1.957-6.896,2.064-10.852c-1.957-0.366-3.897,0.205-5.821,1.709
		C161.803,99.445,160.148,101.326,158.761,103.584z"/>
</g>
<g id="Layer_1_1_">
	<g>
		<path fill="none" stroke="#2E2C2C" stroke-width="4" stroke-linecap="round" stroke-linejoin="bevel" stroke-miterlimit="10" d="
			M64.591,188.966c-2.497,0-5.56-1.767-6.809-3.935L8.935,100.428c-1.247-2.161-1.247-5.701,0-7.864L57.782,7.959
			c1.247-2.164,4.314-3.931,6.809-3.931h97.694c2.497,0,5.562,1.77,6.809,3.931l48.844,84.604c1.249,2.163,1.249,5.703,0,7.864
			l-48.844,84.604c-1.25,2.168-4.317,3.935-6.809,3.935H64.591z"/>
	</g>
</g>
</svg>
