<?xml version="1.0" encoding="utf-8"?>
<!-- Generated by IcoMoon.io -->
<!DOCTYPE svg PUBLIC "-//W3C//DTD SVG 1.1//EN" "http://www.w3.org/Graphics/SVG/1.1/DTD/svg11.dtd">
<svg version="1.1" xmlns="http://www.w3.org/2000/svg" xmlns:xlink="http://www.w3.org/1999/xlink" width="64" height="64" viewBox="0 0 64 64">
	<path d="M48.64 32c0 9.19-7.453 16.64-16.64 16.64-9.19 0-16.64-7.45-16.64-16.64 0-1.094 0.109-2.163 0.314-3.2h-11.194v22.118c0 4.749 3.846 8.602 8.602 8.602h37.837c4.749 0 8.602-3.85 8.602-8.602v-22.118h-11.19c0.202 1.037 0.31 2.106 0.31 3.2zM50.918 4.48h-37.837c-4.752 0-8.602 3.853-8.602 8.602v9.318h13.933c3.011-4.256 7.974-7.040 13.587-7.040s10.576 2.784 13.587 7.040h13.933v-9.318c0-4.749-3.853-8.602-8.602-8.602zM55.126 15.104c0 0.848-0.691 1.536-1.536 1.536h-4.605c-0.845 0-1.536-0.691-1.536-1.536v-4.608c0-0.848 0.694-1.536 1.536-1.536h4.605c0.848 0 1.536 0.691 1.536 1.536v4.608zM42.24 32c0-5.658-4.586-10.24-10.24-10.24s-10.24 4.582-10.24 10.24 4.586 10.24 10.24 10.24 10.24-4.582 10.24-10.24z" fill="#f4f3ef" />
</svg>
