<?xml version="1.0" encoding="utf-8"?>
<!-- Generated by IcoMoon.io -->
<!DOCTYPE svg PUBLIC "-//W3C//DTD SVG 1.1//EN" "http://www.w3.org/Graphics/SVG/1.1/DTD/svg11.dtd">
<svg version="1.1" xmlns="http://www.w3.org/2000/svg" xmlns:xlink="http://www.w3.org/1999/xlink" width="64" height="64" viewBox="0 0 64 64">
	<path d="M5.101 16.915c1.562 0.842 23.197 12.461 24.003 12.893 0.803 0.432 1.846 0.64 2.896 0.64 1.053 0 2.096-0.208 2.899-0.643 0.806-0.432 22.438-12.051 24-12.893 1.565-0.838 3.043-3.472 0.173-3.472h-54.141c-2.87 0-1.395 2.634 0.17 3.475zM59.562 23.315c-1.776 0.928-23.574 12.323-24.662 12.893s-1.846 0.643-2.899 0.643c-1.050 0-1.808-0.074-2.896-0.643s-22.89-11.968-24.662-12.893c-1.251-0.653-1.242 0.112-1.242 0.701 0 0.589 0 23.472 0 23.472 0 1.344 1.789 3.072 3.174 3.072h51.254c1.389 0 3.171-1.728 3.171-3.069 0 0 0-22.883 0-23.472 0-0.592 0.013-1.357-1.238-0.704z" fill="#f4f3ef" />
</svg>
